<?xml version="1.0" standalone="no"?><!DOCTYPE svg PUBLIC "-//W3C//DTD SVG 1.1//EN" "http://www.w3.org/Graphics/SVG/1.1/DTD/svg11.dtd"><svg t="1775833443182" class="icon" viewBox="0 0 1024 1024" version="1.1" xmlns="http://www.w3.org/2000/svg" p-id="10555" xmlns:xlink="http://www.w3.org/1999/xlink" width="200" height="200"><path d="M900.266667 290.133333H123.733333v546.816c0 41.642667 34.517333 76.117333 77.952 76.117334h620.629334c43.434667 0 77.952-34.474667 77.952-76.117334V290.090667zM337.066667 422.4a21.333333 21.333333 0 0 1 42.666666 0 132.266667 132.266667 0 1 0 264.533334 0 21.333333 21.333333 0 0 1 42.666666 0 174.976 174.976 0 0 1-349.866666 0z m-34.261334-311.466667a29.866667 29.866667 0 0 0-21.12 8.746667L153.898667 247.466667h716.16l-127.744-127.744a29.866667 29.866667 0 0 0-21.12-8.746667H302.805333zM942.933333 836.949333c0 65.962667-54.4 118.784-120.618666 118.784H201.685333c-66.261333 0-120.618667-52.821333-120.618666-118.784V268.8a21.333333 21.333333 0 0 1 6.229333-15.061333l164.224-164.224A72.533333 72.533333 0 0 1 302.805333 68.266667h418.389334c19.2 0 37.674667 7.68 51.285333 21.248l164.181333 164.224a21.333333 21.333333 0 0 1 6.272 15.061333v568.149333z" p-id="10556"></path></svg>